<svg id="Grupo_16645" data-name="Grupo 16645" xmlns="http://www.w3.org/2000/svg" xmlns:xlink="http://www.w3.org/1999/xlink" width="213.255" height="35" viewBox="0 0 213.255 35">
  <defs>
    <clipPath id="clip-path">
      <rect id="Rectángulo_8039" data-name="Rectángulo 8039" width="213.255" height="35" fill="#6a5cbc"/>
    </clipPath>
  </defs>
  <g id="Grupo_16643" data-name="Grupo 16643" clip-path="url(#clip-path)">
    <path id="Trazado_10669" data-name="Trazado 10669" d="M32.553,6.263a8.374,8.374,0,0,1,1.2-2.747,7.552,7.552,0,0,1,1.9-1.93A8.4,8.4,0,0,1,38.082.421,9.7,9.7,0,0,1,40.856.027H54.774A2.143,2.143,0,0,1,56.9,2.864l-.093.373a3.878,3.878,0,0,1-3.546,2.839H41.582a2.553,2.553,0,0,0-1.914.676,4.155,4.155,0,0,0-.97,1.93L37.6,13.1c-.085.343.028.512.339.512H49.85a2.144,2.144,0,0,1,2.13,2.838l-.093.374a3.878,3.878,0,0,1-3.547,2.839H36.425a.579.579,0,0,0-.593.512L33.244,30.558A3.878,3.878,0,0,1,29.7,33.4h-1.07A2.145,2.145,0,0,1,26.5,30.558Z" transform="translate(-5.017 -0.005)" fill="#6a5cbc"/>
    <path id="Trazado_10670" data-name="Trazado 10670" d="M66.082,11.289H76.834a4.635,4.635,0,0,1,2.809.768,4.359,4.359,0,0,1,1.509,1.978,7.172,7.172,0,0,1,.443,2.7,13.051,13.051,0,0,1-.393,2.979L77.965,32.7a3.879,3.879,0,0,1-3.547,2.839H60.548a2.451,2.451,0,0,1-2.066-.86,4.455,4.455,0,0,1-.868-2.025,8.975,8.975,0,0,1-.1-2.327,12.357,12.357,0,0,1,.254-1.768,14.647,14.647,0,0,1,.894-2.467A12.45,12.45,0,0,1,60.173,23.6a8.929,8.929,0,0,1,2.064-1.933,4.521,4.521,0,0,1,2.571-.791H72.58a3.64,3.64,0,0,0,2.078-.582,2.366,2.366,0,0,0,1.064-1.372,1.913,1.913,0,0,0-.141-1.3,1.065,1.065,0,0,0-1.048-.652H64.666a2.145,2.145,0,0,1-2.131-2.839,3.877,3.877,0,0,1,3.547-2.839m6.389,18.8a.55.55,0,0,0,.582-.466l.7-2.793c.077-.309-.04-.466-.35-.466H65.115a1.7,1.7,0,0,0-1.2.537A2.462,2.462,0,0,0,63.2,28.09a1.924,1.924,0,0,0,.117,1.4,1.179,1.179,0,0,0,1.152.6Z" transform="translate(-10.921 -2.145)" fill="#6a5cbc"/>
    <path id="Trazado_10671" data-name="Trazado 10671" d="M102.61,11.288a2.145,2.145,0,0,1,2.131,2.84,3.879,3.879,0,0,1-3.547,2.839H99.1a1.527,1.527,0,0,0-.8.232,4.587,4.587,0,0,0-.715.535,3.413,3.413,0,0,0-.559.652,2.143,2.143,0,0,0-.295.627L93.316,32.7a3.88,3.88,0,0,1-3.547,2.84H89.3a2.146,2.146,0,0,1-2.131-2.84L90.99,17.386a7.109,7.109,0,0,1,1.069-2.326A9.036,9.036,0,0,1,93.873,13.1a8.808,8.808,0,0,1,2.284-1.327,6.778,6.778,0,0,1,2.5-.489Z" transform="translate(-16.545 -2.145)" fill="#6a5cbc"/>
    <path id="Trazado_10672" data-name="Trazado 10672" d="M110.889,14.081a3.489,3.489,0,0,1,1.4-1.979,3.649,3.649,0,0,1,2.134-.814h9.635a3.855,3.855,0,0,1,2.094.558,4.731,4.731,0,0,1,1.234,1.025q.174.233.4.535c.152.2.259.3.321.3a.609.609,0,0,0,.3-.162q.2-.163.505-.442t.734-.6a4.386,4.386,0,0,1,1-.559,5.593,5.593,0,0,1,2.03-.582q.972-.069,1.251-.07h3.3a7.141,7.141,0,0,1,3.31.722,6.659,6.659,0,0,1,2.266,1.839,6.062,6.062,0,0,1,1.148,2.49,5.947,5.947,0,0,1-.04,2.675L140.5,32.7a3.877,3.877,0,0,1-3.547,2.839h-2.326q-.513,0-.4-.466l3.852-15.452a2.448,2.448,0,0,0,.006-1.327,2.6,2.6,0,0,0-.565-1,2.431,2.431,0,0,0-.914-.628,2.816,2.816,0,0,0-1.042-.21H132.5a3.382,3.382,0,0,0-1.808.628,2.946,2.946,0,0,0-1.273,1.84L125.982,32.7a3.878,3.878,0,0,1-3.547,2.839A2.145,2.145,0,0,1,120.3,32.7l3.434-13.776a1.748,1.748,0,0,0-.484-1.7,2.34,2.34,0,0,0-1.785-.768h-4.283a1.407,1.407,0,0,0-.966.42,1.952,1.952,0,0,0-.593.976l-3.7,14.848a3.878,3.878,0,0,1-3.547,2.839,2.145,2.145,0,0,1-2.131-2.839Z" transform="translate(-20.169 -2.145)" fill="#6a5cbc"/>
    <path id="Trazado_10673" data-name="Trazado 10673" d="M162.324,11.289h10.751a4.639,4.639,0,0,1,2.81.768,4.362,4.362,0,0,1,1.508,1.978,7.172,7.172,0,0,1,.443,2.7,13.052,13.052,0,0,1-.393,2.979L174.207,32.7a3.878,3.878,0,0,1-3.547,2.839H156.79a2.451,2.451,0,0,1-2.066-.86,4.455,4.455,0,0,1-.868-2.025,8.976,8.976,0,0,1-.1-2.327,12.357,12.357,0,0,1,.254-1.768,14.649,14.649,0,0,1,.894-2.467,12.451,12.451,0,0,1,1.506-2.489,8.929,8.929,0,0,1,2.064-1.933,4.521,4.521,0,0,1,2.571-.791h7.772a3.64,3.64,0,0,0,2.078-.582,2.366,2.366,0,0,0,1.064-1.372,1.913,1.913,0,0,0-.141-1.3,1.065,1.065,0,0,0-1.047-.652h-9.867a2.145,2.145,0,0,1-2.131-2.839,3.877,3.877,0,0,1,3.547-2.839m6.389,18.8a.55.55,0,0,0,.582-.466l.7-2.793c.077-.309-.041-.466-.35-.466h-8.284a1.7,1.7,0,0,0-1.2.537,2.463,2.463,0,0,0-.715,1.186,1.924,1.924,0,0,0,.117,1.4,1.179,1.179,0,0,0,1.152.6Z" transform="translate(-29.205 -2.145)" fill="#6a5cbc"/>
    <path id="Trazado_10674" data-name="Trazado 10674" d="M212.815.862A2.145,2.145,0,0,1,214.946,3.7l-.092.372a3.878,3.878,0,0,1-3.547,2.839H199.438a2.4,2.4,0,0,0-1.064.348,7.262,7.262,0,0,0-1.268.885,10.224,10.224,0,0,0-1.116,1.116,2.685,2.685,0,0,0-.6,1L192.363,22.41a6.085,6.085,0,0,0,.13,4.142,2.657,2.657,0,0,0,2.585,1.582h5.678a4.1,4.1,0,0,0,1.64-.326,5.288,5.288,0,0,0,1.314-.791,4.389,4.389,0,0,0,.9-1,3.319,3.319,0,0,0,.446-.954l.488-1.955a2.143,2.143,0,0,0-2.13-2.837h-2.841a2.145,2.145,0,0,1-2.131-2.839l.093-.373a3.877,3.877,0,0,1,3.546-2.839h9.728a2.145,2.145,0,0,1,2.131,2.839l-2.019,8.1a11.17,11.17,0,0,1-1.145,2.629,13.079,13.079,0,0,1-2.348,2.979,13.849,13.849,0,0,1-3.564,2.443,10.9,10.9,0,0,1-4.84,1.024h-8.1a6.321,6.321,0,0,1-3.7-1.024,6.993,6.993,0,0,1-2.264-2.583,8.85,8.85,0,0,1-.934-3.444,11.585,11.585,0,0,1,.305-3.653l3.3-13.219A10.675,10.675,0,0,1,190.107,7.1a16.264,16.264,0,0,1,2.6-3.072A14.418,14.418,0,0,1,195.317,2.1a9.92,9.92,0,0,1,4.961-1.24h12.537Z" transform="translate(-35.147 -0.164)" fill="#6a5cbc"/>
    <path id="Trazado_10675" data-name="Trazado 10675" d="M224.191,17.359q.684-2.744,1.231-4.747a24.537,24.537,0,0,1,1.091-3.259q.824-1.813,1.6-3.256a10.156,10.156,0,0,1,1.708-2.375,13.4,13.4,0,0,1,2.855-2.117,12.148,12.148,0,0,1,3.3-1.28,18.414,18.414,0,0,1,3-.279Q240.808,0,243.321,0t4.317.046A15.93,15.93,0,0,1,250.5.326a7.113,7.113,0,0,1,2.66,1.28,6.458,6.458,0,0,1,1.8,2.117,5.877,5.877,0,0,1,.525,2.375q.058,1.442-.021,3.256a22.01,22.01,0,0,1-.533,3.259q-.454,2-1.137,4.747l-.07.279q-.685,2.746-1.23,4.748a24.864,24.864,0,0,1-1.091,3.257q-.826,1.815-1.6,3.258a10.157,10.157,0,0,1-1.708,2.373,13.348,13.348,0,0,1-2.855,2.117,12.152,12.152,0,0,1-3.3,1.28,18.262,18.262,0,0,1-3,.279q-1.829.047-4.341.048t-4.317-.048a15.769,15.769,0,0,1-2.863-.279,7.083,7.083,0,0,1-2.66-1.28,6.415,6.415,0,0,1-1.8-2.117,5.836,5.836,0,0,1-.525-2.373q-.058-1.442.021-3.258a21.569,21.569,0,0,1,.533-3.257q.452-2,1.136-4.748ZM238.955,6.492a13.2,13.2,0,0,0-2.309.3,4.916,4.916,0,0,0-2.786,1.653,9.549,9.549,0,0,0-1.62,3.7l-2.669,10.706a7.308,7.308,0,0,0-.225,3.7,2.537,2.537,0,0,0,1.963,1.652,10.663,10.663,0,0,0,2.158.3q1.285.072,2.729.071t2.764-.071a13.08,13.08,0,0,0,2.309-.3,4.915,4.915,0,0,0,2.786-1.652,9.536,9.536,0,0,0,1.621-3.7l2.669-10.706a7.285,7.285,0,0,0,.224-3.7,2.537,2.537,0,0,0-1.961-1.653,10.814,10.814,0,0,0-2.158-.3q-1.287-.069-2.729-.07t-2.764.07" transform="translate(-42.253)" fill="#6a5cbc"/>
    <path id="Trazado_10676" data-name="Trazado 10676" d="M31.361,4.8a1.95,1.95,0,1,1-1.951-1.95A1.95,1.95,0,0,1,31.361,4.8" transform="translate(-5.217 -0.542)" fill="#6a5cbc"/>
    <path id="Trazado_10677" data-name="Trazado 10677" d="M16.024,22.352a2.465,2.465,0,1,1-2.465-2.465,2.465,2.465,0,0,1,2.465,2.465" transform="translate(-2.107 -3.778)" fill="#6a5cbc"/>
    <path id="Trazado_10678" data-name="Trazado 10678" d="M8.18,22.529A1.709,1.709,0,1,1,6.471,20.82,1.709,1.709,0,0,1,8.18,22.529" transform="translate(-0.905 -3.955)" fill="#6a5cbc"/>
    <path id="Trazado_10679" data-name="Trazado 10679" d="M2.147,22.678A1.074,1.074,0,1,1,1.073,21.6a1.074,1.074,0,0,1,1.074,1.074" transform="translate(0 -4.104)" fill="#6a5cbc"/>
    <path id="Trazado_10680" data-name="Trazado 10680" d="M20.481,12.7a1.95,1.95,0,1,1-1.95-1.95,1.95,1.95,0,0,1,1.95,1.95" transform="translate(-3.15 -2.043)" fill="#6a5cbc"/>
    <path id="Trazado_10681" data-name="Trazado 10681" d="M28.934,12.493a2.84,2.84,0,1,1-2.841-2.841,2.841,2.841,0,0,1,2.841,2.841" transform="translate(-4.418 -1.834)" fill="#6a5cbc"/>
    <path id="Trazado_10682" data-name="Trazado 10682" d="M26.225,22.117a3.467,3.467,0,1,1-3.467-3.467,3.467,3.467,0,0,1,3.467,3.467" transform="translate(-3.665 -3.543)" fill="#6a5cbc"/>
    <path id="Trazado_10683" data-name="Trazado 10683" d="M24.493,4.987A1.168,1.168,0,1,1,23.326,3.82a1.167,1.167,0,0,1,1.167,1.167" transform="translate(-4.21 -0.726)" fill="#6a5cbc"/>
    <path id="Trazado_10684" data-name="Trazado 10684" d="M14.177,12.885a1.168,1.168,0,1,1-1.167-1.167,1.167,1.167,0,0,1,1.167,1.167" transform="translate(-2.25 -2.226)" fill="#6a5cbc"/>
    <path id="Trazado_10685" data-name="Trazado 10685" d="M15.511,32.244a1.95,1.95,0,1,1-1.95-1.95,1.95,1.95,0,0,1,1.95,1.95" transform="translate(-2.206 -5.755)" fill="#6a5cbc"/>
    <path id="Trazado_10686" data-name="Trazado 10686" d="M23.964,32.035a2.84,2.84,0,1,1-2.841-2.841,2.841,2.841,0,0,1,2.841,2.841" transform="translate(-3.473 -5.546)" fill="#6a5cbc"/>
    <path id="Trazado_10687" data-name="Trazado 10687" d="M9.207,32.427A1.168,1.168,0,1,1,8.04,31.26a1.167,1.167,0,0,1,1.167,1.167" transform="translate(-1.306 -5.939)" fill="#6a5cbc"/>
  </g>
</svg>
